# xmcd
#
# Track frame offsets:
#       150
#       15255
#       31922
#       45323
#       64366
#       79782
#       95856
#       118159
#       140509
#       163732
#       181232
#
# Disc length: 2619 seconds
#
# Revision: 0
# Processed by: cddbd v1.4b41PL3 Copyright (c) Steve Scherf et al.
# Submitted via: WhereIsIt 3.10
#
DISCID=8d0a390b
DTITLE=Silverwood - Drive
DYEAR=1900
DGENRE=
TTITLE0=Let The Show Get Started
TTITLE1=Drive
TTITLE2=Horses Run Free
TTITLE3=Ame And Jacky
TTITLE4=Something To Look Forward To
TTITLE5=When I Look At You
TTITLE6=Take Me In Your Arms
TTITLE7=Lawman
TTITLE8=Lullaby
TTITLE9=Already In Love
TTITLE10=If You Don´t Like Country
EXTD=
EXTT0=
EXTT1=
EXTT2=
EXTT3=
EXTT4=
EXTT5=
EXTT6=
EXTT7=
EXTT8=
EXTT9=
EXTT10=
PLAYORDER=
